<svg xmlns="http://www.w3.org/2000/svg" viewBox="0 0 36.91 36.91"><defs><style>.cls-1{fill:#505050;}.cls-2{fill:#fff068;}</style></defs><g id="Layer_2" data-name="Layer 2"><g id="Layer_1-2" data-name="Layer 1"><circle class="cls-1" cx="18.45" cy="18.45" r="18.45"/><path class="cls-2" d="M27.15,10.38A20.21,20.21,0,0,0,22,8.76c-.22.4-.48.94-.66,1.37a19,19,0,0,0-5.73,0,13.36,13.36,0,0,0-.67-1.37,20.23,20.23,0,0,0-5.17,1.63A21.63,21.63,0,0,0,6,24.9a20.85,20.85,0,0,0,6.33,3.25,15.91,15.91,0,0,0,1.36-2.24,12.82,12.82,0,0,1-2.14-1l.53-.41a14.65,14.65,0,0,0,12.67,0l.52.41a12.45,12.45,0,0,1-2.14,1,15.36,15.36,0,0,0,1.36,2.24,20.56,20.56,0,0,0,6.34-3.25A21.69,21.69,0,0,0,27.15,10.38ZM14.29,22A2.44,2.44,0,0,1,12,19.42a2.42,2.42,0,0,1,2.25-2.57,2.4,2.4,0,0,1,2.25,2.57A2.41,2.41,0,0,1,14.29,22Zm8.33,0a2.44,2.44,0,0,1-2.26-2.56,2.43,2.43,0,0,1,2.26-2.57,2.41,2.41,0,0,1,2.25,2.57A2.42,2.42,0,0,1,22.62,22Z"/></g></g></svg>