<svg xmlns="http://www.w3.org/2000/svg" viewBox="0 0 52.76 20.43"><defs><style>.cls-1{fill:silver;}</style></defs><g id="Layer_2" data-name="Layer 2"><g id="Layer_1-2" data-name="Layer 1"><path class="cls-1" d="M15.48,18h0a2.18,2.18,0,0,1-.61,1.61,2.47,2.47,0,0,1-1.86.62H1.92a2.29,2.29,0,0,1-1.28-.51A2.51,2.51,0,0,1,0,17.79V2.47A2.47,2.47,0,0,1,.61.64,2.16,2.16,0,0,1,2.2,0,2.28,2.28,0,0,1,3.82.64a2.45,2.45,0,0,1,.61,1.83V15.75H13a2.59,2.59,0,0,1,1.86.59A2.18,2.18,0,0,1,15.48,18Z"/><path class="cls-1" d="M52.25,3.85A5.65,5.65,0,0,0,48.45.49,15.39,15.39,0,0,0,44.57.11H38.9a3,3,0,0,0-2.13.63,2.7,2.7,0,0,0-.67,2.07V17.49a2.9,2.9,0,0,0,.61,2,2.21,2.21,0,0,0,3.19,0,2.88,2.88,0,0,0,.63-2v-4h4q4.08,0,6.13-1.72a6.2,6.2,0,0,0,2.06-5.06A7.6,7.6,0,0,0,52.25,3.85ZM47.71,8.71a3.1,3.1,0,0,1-1.58,1.07,9,9,0,0,1-2.63.33h-3V3.43h3c2,0,3.29.33,3.93,1a3.27,3.27,0,0,1,.85,2.36A3.16,3.16,0,0,1,47.71,8.71Z"/><path class="cls-1" d="M33.47,19.82a2.38,2.38,0,0,1-3.34-.32L25.51,14,21,19.55a2.38,2.38,0,0,1-3.35.35,2.41,2.41,0,0,1-.34-3.35l5.13-6.32L17.19,4A2.37,2.37,0,0,1,19,.08a2.34,2.34,0,0,1,1.83.85l4.63,5.53L30,.88A2.38,2.38,0,0,1,31.87,0a2.35,2.35,0,0,1,1.49.53,2.37,2.37,0,0,1,.35,3.35l-5.14,6.3,5.22,6.27A2.41,2.41,0,0,1,33.47,19.82Z"/><circle class="cls-1" cx="10.72" cy="2.19" r="2.16"/></g></g></svg>