<svg xmlns="http://www.w3.org/2000/svg" viewBox="0 0 70.75 20.43"><defs><style>.cls-1{fill:#505050;}</style></defs><g id="Layer_2" data-name="Layer 2"><g id="Layer_1-2" data-name="Layer 1"><path class="cls-1" d="M18.56,20.14H15.61V5.83h2.95Z"/><path class="cls-1" d="M29.19,5.55a5.15,5.15,0,0,1,4,1.7,6.29,6.29,0,0,1,1.54,4.35v8.54H31.77V12.05A3.74,3.74,0,0,0,30.7,9.31a3.58,3.58,0,0,0-2.63-1.07,4,4,0,0,0-2.89,1.07,3.63,3.63,0,0,0-1.12,2.74v8.09H21.12V5.83h2.94v3.7a5.79,5.79,0,0,1,2-2.92,5,5,0,0,1,3.18-1.06Z"/><path class="cls-1" d="M43.88,5.55A7.1,7.1,0,0,1,49.48,8a7.43,7.43,0,0,1,1.77,6H39.4A4.56,4.56,0,0,0,41,16.8a4.69,4.69,0,0,0,3.11,1.08,4.64,4.64,0,0,0,2.51-.69,4.74,4.74,0,0,0,1.72-1.86l2.47,1.09A7.82,7.82,0,0,1,38.61,18.3,7.1,7.1,0,0,1,36.42,13a7.33,7.33,0,0,1,7.46-7.45Zm0,2.55a4.3,4.3,0,0,0-2.82,1,4.77,4.77,0,0,0-1.58,2.59h8.8a4.57,4.57,0,0,0-1.56-2.59A4.29,4.29,0,0,0,43.88,8.1Z"/><path class="cls-1" d="M59.38,5.55a6.34,6.34,0,0,1,4.2,1.34,4.73,4.73,0,0,1,1.63,3.87v9.38H62.27V16.33Q61,20.42,57,20.43a4.43,4.43,0,0,1-3.08-1.11,3.73,3.73,0,0,1-1.23-2.9,3.6,3.6,0,0,1,1.48-3.15A8,8,0,0,1,57.92,12l2.78-.28c1-.09,1.57-.56,1.57-1.4a2,2,0,0,0-.8-1.65A3.35,3.35,0,0,0,59.38,8a3.69,3.69,0,0,0-2.23.68,3.06,3.06,0,0,0-1.16,2L53.08,10a4.9,4.9,0,0,1,2.1-3.21,7.2,7.2,0,0,1,4.2-1.19ZM57.92,18A4.22,4.22,0,0,0,61,16.82,3.83,3.83,0,0,0,62.26,14V13.2q-.33.56-1.62.69l-2.72.34a3.46,3.46,0,0,0-1.69.63,1.6,1.6,0,0,0-.63,1.33,1.65,1.65,0,0,0,.63,1.35,2.66,2.66,0,0,0,1.69.5Z"/><path class="cls-1" d="M13.59,20.14H0V5.83H3.11V17.37H13.59Z"/><path class="cls-1" d="M68,5.55a2.78,2.78,0,1,0-2.77-2.78A2.78,2.78,0,0,0,68,5.55Z"/></g></g></svg>