<svg xmlns="http://www.w3.org/2000/svg" xmlns:xlink="http://www.w3.org/1999/xlink" viewBox="0 0 337.81 407.53"><defs><style>.cls-1{fill:none;}.cls-2{fill:silver;stroke:#fff;stroke-miterlimit:10;stroke-width:2px;}.cls-3{clip-path:url(#clip-path);}.cls-4{fill:url(#linear-gradient);}.cls-5{fill:url(#linear-gradient-2);}.cls-6{fill:url(#linear-gradient-3);}.cls-7{fill:url(#linear-gradient-4);}.cls-8{fill:url(#linear-gradient-5);}.cls-9{fill:url(#linear-gradient-6);}</style><clipPath id="clip-path" transform="translate(0 -0.25)"><rect class="cls-1" x="1" width="335.81" height="384.21" rx="28.35"/></clipPath><linearGradient id="linear-gradient" x1="90.53" y1="319.32" x2="88.63" y2="388.23" gradientUnits="userSpaceOnUse"><stop offset="0" stop-color="#505050"/><stop offset="0.4" stop-color="#7a7a7a"/><stop offset="1" stop-color="silver"/></linearGradient><linearGradient id="linear-gradient-2" x1="138.74" y1="320.65" x2="136.84" y2="389.56" xlink:href="#linear-gradient"/><linearGradient id="linear-gradient-3" x1="209.76" y1="322.61" x2="207.86" y2="391.52" xlink:href="#linear-gradient"/><linearGradient id="linear-gradient-4" x1="277.48" y1="324.48" x2="275.58" y2="393.39" xlink:href="#linear-gradient"/><linearGradient id="linear-gradient-5" x1="44.71" y1="318.06" x2="42.81" y2="386.97" xlink:href="#linear-gradient"/><linearGradient id="linear-gradient-6" x1="315.87" y1="325.54" x2="313.97" y2="394.45" xlink:href="#linear-gradient"/></defs><g id="Layer_2" data-name="Layer 2"><g id="Layer_1-2" data-name="Layer 1"><rect class="cls-2" x="1" y="1" width="335.81" height="384.21" rx="28.35"/><g class="cls-3"><path class="cls-4" d="M95.56,406.53H82.45V342.74H95.56Z" transform="translate(0 -0.25)"/><path class="cls-5" d="M142.93,341.49a22.8,22.8,0,0,1,17.72,7.61q6.87,7.61,6.87,19.35v38.07H154.41V370.45a16.65,16.65,0,0,0-4.74-12.18,15.85,15.85,0,0,0-11.73-4.8q-7.87,0-12.86,4.8a16.2,16.2,0,0,0-5,12.18v36.07H107V342.74h13.1v16.48a26.06,26.06,0,0,1,8.68-13,22.33,22.33,0,0,1,14.17-4.74Z" transform="translate(0 -0.25)"/><path class="cls-6" d="M208.39,341.49q15.35,0,25,11t7.86,26.59h-52.8a20.46,20.46,0,0,0,7.12,12.55,22.16,22.16,0,0,0,25,1.75,21.11,21.11,0,0,0,7.68-8.3l11,4.87a33,33,0,0,1-12.1,13,33.64,33.64,0,0,1-18.1,4.87q-14.35,0-24.1-9.48a31.61,31.61,0,0,1-9.74-23.6,32.62,32.62,0,0,1,33.21-33.21Zm0,11.36a19,19,0,0,0-12.55,4.43,21.18,21.18,0,0,0-7.05,11.55H228a20.59,20.59,0,0,0-6.92-11.55A19.17,19.17,0,0,0,208.39,352.85Z" transform="translate(0 -0.25)"/><path class="cls-7" d="M277.45,341.49q11.49,0,18.72,6t7.25,17.22v41.83H290.31v-17q-5.88,18.22-23.6,18.23A19.79,19.79,0,0,1,253,402.85a16.54,16.54,0,0,1-5.49-12.92q0-9.36,6.62-14T271,370.08l12.36-1.25c4.65-.41,7-2.5,7-6.24a8.81,8.81,0,0,0-3.56-7.36,14.8,14.8,0,0,0-9.3-2.75,16.37,16.37,0,0,0-9.92,3,13.61,13.61,0,0,0-5.18,8.74l-13-3.13a22,22,0,0,1,9.37-14.29q7.61-5.3,18.72-5.31ZM271,397.16a19,19,0,0,0,13.73-5.43,17.1,17.1,0,0,0,5.61-12.67v-3.49c-1,1.66-3.41,2.7-7.24,3.11L271,380.18A15.36,15.36,0,0,0,263.4,383a7.11,7.11,0,0,0-2.81,5.93,7.29,7.29,0,0,0,2.81,6,11.79,11.79,0,0,0,7.55,2.24Z" transform="translate(0 -0.25)"/><path class="cls-8" d="M73.43,406.53H12.88V342.74H26.73v51.43h46.7Z" transform="translate(0 -0.25)"/><path class="cls-9" d="M315.77,341.49a12.36,12.36,0,1,0-12.35-12.36A12.36,12.36,0,0,0,315.77,341.49Z" transform="translate(0 -0.25)"/></g></g></g></svg>