<svg xmlns="http://www.w3.org/2000/svg" viewBox="0 0 38.46 27.55"><defs><style>.cls-1{fill:silver;}</style></defs><g id="Layer_2" data-name="Layer 2"><g id="Layer_1-2" data-name="Layer 1"><path class="cls-1" d="M34.74,18.2A5.35,5.35,0,0,0,32,16.48c-.06.21-.12.41-.19.62-.13.4-.27.77-.37,1,1.66.53,2.06,1,2.06,1.14s-1.2,1.21-5.09,1.93c-.89.15-1.75.28-2.62.37a56.15,56.15,0,0,1-6.58.36,55.25,55.25,0,0,1-7-.41c-.93-.11-1.79-.24-2.61-.41C5.78,20.36,5,19.47,5,19.28s.5-.71,2.6-1.32c-.11-.28-.23-.64-.35-1-.07-.2-.14-.43-.21-.65A6.12,6.12,0,0,0,3.7,18.21a1.78,1.78,0,0,0-.35,1.07C3.35,21,5.57,22.2,10,23c1.07.19,2.19.35,3.34.46,2.4.24,4.56.28,5.93.28,1.8,0,3.71-.08,5.56-.25,1.27-.12,2.35-.25,3.32-.41,4.65-.77,7-2,7-3.76A1.84,1.84,0,0,0,34.74,18.2Zm-27-2.13.39-.1.34-.07a2.7,2.7,0,0,1,.35-.07,52.59,52.59,0,0,1,10.39-1,54.88,54.88,0,0,1,10.09.89,1.51,1.51,0,0,1,.33.07l.3.07-.08.43L30,15.9c.47.11.9.22,1.31.34-.08.21-.15.44-.22.64l-.11.32a2.25,2.25,0,0,1-.08.24.47.47,0,0,0-.05.1,3.84,3.84,0,0,1-.18.35c-.28-.09-.61-.17-.95-.26l-.82-.17a49.52,49.52,0,0,0-9.63-.83,48.54,48.54,0,0,0-9.95.89l-.37.08-.45.12-.1,0-.07-.14a1.47,1.47,0,0,1-.1-.22L8,16.73Z"/><path class="cls-1" d="M32.44,15.53l-.13,0c-.09.32-.19.65-.3,1s-.12.41-.19.62a3.24,3.24,0,0,1,.41.13,17.16,17.16,0,0,1,2.51,1c1.66.8,2.62,1.68,2.62,2.47,0,1.1-2,2.72-6.65,3.88h0c-1.09.27-2.18.49-3.27.67a52,52,0,0,1-8.19.59,51.82,51.82,0,0,1-8.68-.68,29.38,29.38,0,0,1-3.26-.71c-3.76-1-6.18-2.49-6.18-3.76,0-.78.95-1.66,2.6-2.46a17.24,17.24,0,0,1,2.08-.85c.3-.12.6-.2.93-.3l.11,0,.38-.11c-.07-.2-.14-.43-.21-.65s-.19-.63-.28-.94l-.29.08a4.47,4.47,0,0,0-.65.2l-.18.06C1.94,16.88,0,18.61,0,20.67c0,2.44,2.7,4.4,7.81,5.63a38,38,0,0,0,4.09.75,53.57,53.57,0,0,0,7.32.5,56.19,56.19,0,0,0,6.84-.43,38.44,38.44,0,0,0,4.1-.69c3.77-.87,8.3-2.57,8.3-5.76C38.46,18.54,36.37,16.76,32.44,15.53Zm-24.69.54c-.08-.31-.18-.63-.26-.94L8.2,15h.07a51.18,51.18,0,0,1,11-1.15,52.54,52.54,0,0,1,10.63,1.06c.52.11,1.08.24,1.69.41-.08.31-.18.64-.28,1s-.15.44-.22.64c-.5-.14-1-.26-1.46-.36a49.19,49.19,0,0,0-10.36-1A49.62,49.62,0,0,0,8.54,16.58L8,16.73Z"/><path class="cls-1" d="M8,16.73l.22.65a1.47,1.47,0,0,0,.1.22l.07.14c.11.24.23.47.37.71s.34.58.53.87c1.19.17,2.47.31,3.75.41,2.31.17,4.66.26,6.73.26,1.92,0,4.11-.07,6.27-.23,1.28-.09,2.56-.21,3.76-.38.19-.28.36-.57.54-.86a5.33,5.33,0,0,0,.32-.63,3.84,3.84,0,0,0,.18-.35.47.47,0,0,1,.05-.1,2.25,2.25,0,0,0,.08-.24l.11-.32c.07-.2.14-.43.22-.64s.2-.66.28-1c0-.13.09-.26.12-.4s.05-.25.07-.37a2.63,2.63,0,0,0,.06-.39,1.74,1.74,0,0,0,.05-.39,12,12,0,0,0,.07-1.33,12.39,12.39,0,0,0-24.78,0,10.85,10.85,0,0,0,.09,1.4c0,.13,0,.26,0,.38h0c0,.06,0,.13,0,.21s.12.47.19.74.18.63.26.94Z"/><path class="cls-1" d="M7.49,15.13c-.07-.27-.13-.52-.19-.74"/><path class="cls-1" d="M8.18,17.38,8,16.73c-.06-.22-.13-.43-.21-.66"/><path class="cls-1" d="M31.66,14.87c0,.14-.08.27-.12.4"/></g></g></svg>