<svg xmlns="http://www.w3.org/2000/svg" viewBox="0 0 36.91 36.91"><defs><style>.cls-1{fill:#505050;}.cls-2{fill:#fff068;}</style></defs><g id="Layer_2" data-name="Layer 2"><g id="Layer_1-2" data-name="Layer 1"><circle class="cls-1" cx="18.45" cy="18.45" r="18.45"/><path class="cls-2" d="M7.57,18.29A11,11,0,0,1,8.44,14c-1.76,1.11-2.84,2.52-2.91,4.09a1,1,0,0,0,0,.17,1.09,1.09,0,0,0,0,.18c.07,1.56,1.15,3,2.92,4.08A10.82,10.82,0,0,1,7.57,18.29Zm20.89,4.26a10.92,10.92,0,0,1-5.75,5.75h0c-1.1,1.77-2.52,2.84-4.08,2.91A12.93,12.93,0,0,0,31.38,18.47C31.3,20,30.23,21.45,28.46,22.55Z"/><path class="cls-2" d="M18.45,29.17a10.81,10.81,0,0,0,4.26-.87c-1.1,1.77-2.52,2.84-4.08,2.91h-.35A12.93,12.93,0,0,1,5.53,18.47c.07,1.56,1.15,3,2.92,4.08A10.92,10.92,0,0,0,14.2,28.3a14.49,14.49,0,0,1-1.68-4.07A18.8,18.8,0,0,1,12.06,22a25.21,25.21,0,0,1,0-7.36,19.21,19.21,0,0,1,.46-2.26,14.91,14.91,0,0,1,1.67-4.07A10.91,10.91,0,0,0,8.45,14h0c-1.76,1.11-2.84,2.52-2.91,4.09A12.93,12.93,0,0,1,18.28,5.37h.35c1.56.07,3,1.15,4.08,2.91a10.78,10.78,0,0,0-4.26-.87c-1.34,0-2.77,1.69-3.68,4.49a18.53,18.53,0,0,0-.55,2.17,22.82,22.82,0,0,0-.38,4.22,22.14,22.14,0,0,0,.39,4.23,22.82,22.82,0,0,0,4.22.38,22.93,22.93,0,0,0,4.23-.38,15.61,15.61,0,0,1-.55,2.17,25.4,25.4,0,0,1-3.68.26,25.61,25.61,0,0,1-3.68-.26C15.68,27.48,17.11,29.17,18.45,29.17Z"/><path class="cls-2" d="M24.85,14.61a21.49,21.49,0,0,0-.46-2.26,14.61,14.61,0,0,0-1.68-4.07,10.78,10.78,0,0,0-4.26-.87c1.34,0,2.78,1.69,3.68,4.49a15.26,15.26,0,0,1,.55,2.17,22.82,22.82,0,0,1,.38,4.22,23,23,0,0,1-.38,4.23A15.61,15.61,0,0,0,24.85,22a25.4,25.4,0,0,0,.26-3.68A25.5,25.5,0,0,0,24.85,14.61Z"/><path class="cls-2" d="M31.38,18.29v.18c-.08,1.56-1.15,3-2.92,4.08a14.49,14.49,0,0,1-4.07,1.68,14.49,14.49,0,0,1-1.68,4.07h0a10.81,10.81,0,0,1-4.26.87c1.34,0,2.78-1.69,3.68-4.48a15.61,15.61,0,0,0,.55-2.17A15.61,15.61,0,0,0,24.85,22c2.79-.9,4.48-2.34,4.48-3.68A11,11,0,0,0,28.47,14h0a11,11,0,0,0-5.75-5.75c-1.1-1.76-2.52-2.84-4.08-2.91A12.93,12.93,0,0,1,31.38,18.12Z"/><path class="cls-2" d="M7.57,18.29c0-1.34,1.7-2.77,4.49-3.68a19.21,19.21,0,0,1,.46-2.26A14.36,14.36,0,0,0,8.45,14h0c-1.76,1.11-2.84,2.52-2.91,4.09a1,1,0,0,0,0,.17,1.09,1.09,0,0,0,0,.18c.07,1.56,1.15,3,2.92,4.08a14.36,14.36,0,0,0,4.07,1.68A18.8,18.8,0,0,1,12.06,22C9.27,21.07,7.57,19.63,7.57,18.29ZM28.47,14h0a14.49,14.49,0,0,0-4.07-1.68,21,21,0,0,0-2.26-.45,25.21,25.21,0,0,0-7.36,0,18.53,18.53,0,0,0-.55,2.17,22.14,22.14,0,0,1,4.23-.39,22,22,0,0,1,4.23.39,17.2,17.2,0,0,1,2.17.54c2.79.91,4.48,2.34,4.48,3.68A11,11,0,0,0,28.47,14Z"/></g></g></svg>